HIERARCHY
ROOT Hips
{
	OFFSET 0.000000 0.000000 0.000000
	CHANNELS 6 Xposition Yposition Zposition Xrotation Yrotation Zrotation
	JOINT LeftUpLeg_virtual
	{
		OFFSET 0.000000 0.000000 0.000000
		CHANNELS 3 Xrotation Yrotation Zrotation
		JOINT LeftUpLeg
		{
			OFFSET 11.394100 -6.187798 -0.413800
			CHANNELS 3 Xrotation Yrotation Zrotation
			JOINT LeftLeg
			{
				OFFSET 0.430247 -32.302673 3.732800
				CHANNELS 3 Xrotation Yrotation Zrotation
				JOINT LeftFoot
				{
					OFFSET -0.430247 -48.264931 -6.423300
					CHANNELS 3 Xrotation Yrotation Zrotation
					JOINT LeftToeBase
					{
						OFFSET 4.230900 -16.068199 23.438400
						CHANNELS 3 Xrotation Yrotation Zrotation
						JOINT LeftToe_End
						{
							OFFSET 4.510700 0.695400 19.974600
							CHANNELS 3 Xrotation Yrotation Zrotation
							End Site
							{
								OFFSET 0 0 0
							}
						}
					}
				}
			}
		}
	}
	JOINT RightUpLeg_virtual
	{
		OFFSET 0.000000 0.000000 0.000000
		CHANNELS 3 Xrotation Yrotation Zrotation
		JOINT RightUpLeg
		{
			OFFSET -11.333700 -6.187798 -0.413800
			CHANNELS 3 Xrotation Yrotation Zrotation
			JOINT RightLeg
			{
				OFFSET -0.430392 -32.302628 3.733000
				CHANNELS 3 Xrotation Yrotation Zrotation
				JOINT RightFoot
				{
					OFFSET 0.430392 -48.264973 -6.423500
					CHANNELS 3 Xrotation Yrotation Zrotation
					JOINT RightToeBase
					{
						OFFSET -4.230900 -16.068199 23.438400
						CHANNELS 3 Xrotation Yrotation Zrotation
						JOINT RightToe_End
						{
							OFFSET -4.510700 0.695400 19.974600
							CHANNELS 3 Xrotation Yrotation Zrotation
							End Site
							{
								OFFSET 0 0 0
							}
						}
					}
				}
			}
		}
	}
	JOINT Spine_virtual
	{
		OFFSET 0.000000 0.000000 0.000000
		CHANNELS 3 Xrotation Yrotation Zrotation
		JOINT Spine
		{
			OFFSET -0.002400 12.777504 0.315300
			CHANNELS 3 Xrotation Yrotation Zrotation
			JOINT Spine1
			{
				OFFSET -0.002067 5.816869 0.032633
				CHANNELS 3 Xrotation Yrotation Zrotation
				JOINT Spine1_split
				{
					OFFSET -0.002067 5.816869 0.032633
					CHANNELS 3 Xrotation Yrotation Zrotation
					JOINT Spine2
					{
						OFFSET -0.002067 5.816869 0.032633
						CHANNELS 3 Xrotation Yrotation Zrotation
						JOINT Neck_virtual
						{
							OFFSET 0.000000 0.000000 0.000000
							CHANNELS 3 Xrotation Yrotation Zrotation
							JOINT Neck
							{
								OFFSET -0.003700 21.199493 -0.826900
								CHANNELS 3 Xrotation Yrotation Zrotation
								JOINT Head
								{
									OFFSET 0.000000 20.442200 4.834800
									CHANNELS 3 Xrotation Yrotation Zrotation
									JOINT HeadTop_End
									{
										OFFSET 0.000000 34.668396 4.968400
										CHANNELS 3 Xrotation Yrotation Zrotation
										End Site
										{
											OFFSET 0 0 0
										}
									}
								}
							}
						}
						JOINT LeftShoulder_virtual
						{
							OFFSET 0.000000 0.000000 0.000000
							CHANNELS 3 Xrotation Yrotation Zrotation
							JOINT LeftShoulder
							{
								OFFSET 3.288150 8.794197 -1.372250
								CHANNELS 3 Xrotation Yrotation Zrotation
								JOINT LeftShoulder_split
								{
									OFFSET 3.288150 8.794197 -1.372250
									CHANNELS 3 Xrotation Yrotation Zrotation
									JOINT LeftArm
									{
										OFFSET 11.953299 -2.279007 -0.146200
										CHANNELS 3 Xrotation Yrotation Zrotation
										JOINT LeftForeArm
										{
											OFFSET 18.448900 0.000000 0.000000
											CHANNELS 3 Xrotation Yrotation Zrotation
											JOINT LeftHand
											{
												OFFSET 29.527798 0.000000 0.000000
												CHANNELS 3 Xrotation Yrotation Zrotation
												End Site
												{
													OFFSET 0 0 0
												}
											}
										}
									}
								}
							}
						}
						JOINT RightShoulder_virtual
						{
							OFFSET 0.000000 0.000000 0.000000
							CHANNELS 3 Xrotation Yrotation Zrotation
							JOINT RightShoulder
							{
								OFFSET -3.249400 8.794197 -1.372250
								CHANNELS 3 Xrotation Yrotation Zrotation
								JOINT RightShoulder_split
								{
									OFFSET -3.249400 8.794197 -1.372250
									CHANNELS 3 Xrotation Yrotation Zrotation
									JOINT RightArm
									{
										OFFSET -11.953299 -2.279007 -0.146200
										CHANNELS 3 Xrotation Yrotation Zrotation
										JOINT RightForeArm
										{
											OFFSET -18.448900 0.000000 0.000000
											CHANNELS 3 Xrotation Yrotation Zrotation
											JOINT RightHand
											{
												OFFSET -29.527802 0.000000 0.000000
												CHANNELS 3 Xrotation Yrotation Zrotation
												End Site
												{
													OFFSET 0 0 0
												}
											}
										}
									}
								}
							}
						}
					}
				}
			}
		}
	}
}
MOTION
Frames: 6
Frame Time: 0.03333333
3.957877 78.173378 1.178963 0.000000 0.000000 0.000000 25.044115 -15.770564 9.462219 -79.471389 -2.642239 22.323174 56.407715 -10.682470 5.814826 7.467645 5.386524 -17.999673 2.048961 -3.546524 -0.215464 0.000000 0.000000 0.000000 24.389185 -15.803693 9.244128 -67.510327 -3.773070 -22.218337 63.181763 11.117905 -10.481753 -7.445054 -12.938380 30.889811 1.776121 8.738524 -21.501176 0.000000 0.000000 0.000000 24.371701 -8.263052 6.902743 13.889533 1.953141 0.012272 8.801257 -2.769451 0.577724 0.077897 -0.187467 0.043457 0.000000 0.000000 0.000000 9.113882 -0.351762 1.093534 -11.583628 1.210479 -15.520785 -37.242450 9.199756 -5.245219 0.000000 0.000000 0.000000 7.553789 -2.137480 -0.759385 4.279983 -7.359245 3.914979 0.173498 -4.058300 1.388476 -51.397693 6.235581 -57.098015 -38.477430 -69.580968 -32.870350 0.000000 0.000000 0.000000 10.664306 -0.594240 1.427719 1.744857 10.728838 -10.181597 6.654088 2.823984 4.941170 -41.635672 -0.327731 55.874318 -50.485989 69.243269 47.508959 0.000000 0.000000 0.000000 
3.900772 78.135651 1.293083 0.000000 0.000000 0.000000 24.502498 -15.899668 9.394397 -78.725450 -2.192006 21.923485 56.325896 -10.581582 6.074178 6.624329 5.768169 -17.721747 2.696799 -3.324173 -0.782078 0.000000 0.000000 0.000000 23.891085 -16.092096 9.233098 -67.265807 -4.140330 -22.495901 63.359423 10.940080 -10.050931 -8.247919 -13.038618 29.617036 2.976758 8.403234 -22.323227 0.000000 0.000000 0.000000 23.643415 -8.124748 6.903555 14.115877 1.679899 -0.250133 8.542855 -2.766707 0.699467 0.050460 -0.165913 0.036837 0.000000 0.000000 0.000000 9.236422 -0.364477 1.191514 -11.674241 0.564338 -15.834460 -38.205059 8.519105 -3.073806 0.000000 0.000000 0.000000 7.606510 -2.130217 -0.598613 4.587342 -7.501770 3.219427 -0.205466 -4.268443 1.560283 -49.935701 7.127681 -58.474506 -38.517465 -70.484752 -32.685037 0.000000 0.000000 0.000000 10.664291 -0.650052 1.506727 1.459328 10.353253 -9.598099 7.689062 3.663676 4.491127 -39.117019 0.052811 56.485982 -54.475594 70.768485 51.900326 0.000000 0.000000 0.000000 
3.797459 77.835907 1.342266 0.000000 0.000000 0.000000 24.122106 -16.025757 9.399040 -78.240063 -1.978240 21.632452 56.679676 -10.658680 6.271243 5.792456 6.230178 -17.658433 3.245960 -3.112533 -1.155239 0.000000 0.000000 0.000000 23.554736 -16.185243 9.270699 -67.312225 -4.273827 -22.650451 63.887814 10.713689 -9.683430 -9.181874 -13.166574 28.361635 4.046541 7.961589 -22.864835 0.000000 0.000000 0.000000 23.146808 -8.126683 7.001147 14.379763 1.415504 -0.501140 8.345457 -2.803721 0.851789 0.051987 -0.121481 0.011664 0.000000 0.000000 0.000000 9.408768 -0.409786 1.278070 -11.838527 -0.003640 -16.186204 -39.522603 8.224203 -0.931840 0.000000 0.000000 0.000000 7.712583 -2.168832 -0.411826 4.916621 -7.749758 2.910813 -0.638722 -4.597477 1.545678 -48.242688 8.081889 -59.666641 -38.676452 -72.086752 -32.743503 0.000000 0.000000 0.000000 10.686034 -0.773463 1.585027 1.298009 9.945221 -9.327988 8.928664 4.223019 4.007393 -36.963112 0.192839 56.968368 -59.658923 72.405469 57.509298 0.000000 0.000000 0.000000 
3.668668 77.336792 1.380962 0.000000 0.000000 0.000000 23.899114 -16.195540 9.463554 -77.914235 -1.911272 21.466041 57.303559 -10.875443 6.428127 4.919871 6.726422 -17.713201 3.594954 -2.937561 -1.210245 0.000000 0.000000 0.000000 23.422626 -16.179514 9.358904 -67.611291 -4.204019 -22.686176 64.620003 10.499322 -9.377998 -10.001198 -13.232808 27.338624 4.698224 7.530848 -23.255833 0.000000 0.000000 0.000000 22.898561 -8.273990 7.143122 14.589682 1.133365 -0.709580 8.195712 -2.860734 1.021542 0.061840 -0.053740 -0.001236 0.000000 0.000000 0.000000 9.601475 -0.463357 1.350464 -12.038900 -0.481338 -16.560492 -41.044792 8.220601 1.101020 0.000000 0.000000 0.000000 7.836335 -2.229987 -0.220996 5.248716 -8.124489 2.717447 -1.007587 -4.833292 1.367897 -46.406351 9.094089 -60.516869 -38.740259 -73.993980 -32.776790 0.000000 0.000000 0.000000 10.695186 -0.915365 1.656295 1.245379 9.571685 -9.310555 10.339551 4.593496 3.635238 -35.119347 -0.018025 57.279049 -65.827772 74.017462 64.120894 0.000000 0.000000 0.000000 
3.499570 76.752777 1.399261 0.000000 0.000000 0.000000 23.822402 -16.425772 9.579894 -77.736138 -1.962690 21.391869 58.065590 -11.185486 6.582378 4.048604 7.212426 -17.889447 3.954440 -2.804333 -1.093805 0.000000 0.000000 0.000000 23.423266 -16.281318 9.504974 -68.094425 -4.026991 -22.622486 65.489691 10.262370 -9.114674 -10.647250 -13.296919 26.508705 5.095988 7.130396 -23.563526 0.000000 0.000000 0.000000 22.873487 -8.579770 7.304063 14.701745 0.841035 -0.835968 8.053357 -2.919266 1.193363 0.074069 0.001206 -0.011888 0.000000 0.000000 0.000000 9.763964 -0.505352 1.387369 -12.224881 -0.904795 -16.945875 -42.554992 8.419064 2.946403 0.000000 0.000000 0.000000 7.936758 -2.291645 -0.048263 5.550371 -8.625483 2.384788 -1.331555 -4.805188 1.175325 -44.545370 10.174604 -60.908205 -38.402271 -75.805114 -32.485172 0.000000 0.000000 0.000000 10.680980 -1.026657 1.721512 1.292825 9.279446 -9.436752 11.620087 4.982704 3.433593 -33.578272 -0.507027 57.316215 -71.966295 75.457423 70.707771 0.000000 0.000000 0.000000 
3.306970 76.160751 1.405548 0.000000 0.000000 0.000000 23.809455 -16.616938 9.708624 -77.687856 -2.120393 21.355339 58.812334 -11.582110 6.759350 3.303412 7.615561 -18.250146 4.243086 -2.709879 -0.840374 0.000000 0.000000 0.000000 23.494877 -16.522383 9.691698 -68.646003 -3.810486 -22.494314 66.428173 9.965839 -8.868819 -11.265108 -13.426194 25.723023 5.544117 6.747462 -23.823213 0.000000 0.000000 0.000000 22.930492 -8.950491 7.463603 14.716484 0.590161 -0.853133 7.889249 -2.946460 1.354811 0.071838 0.059625 -0.012892 0.000000 0.000000 0.000000 9.853272 -0.517985 1.397902 -12.380056 -1.302024 -17.311277 -43.801918 8.852151 4.493752 0.000000 0.000000 0.000000 7.987121 -2.337632 0.095028 5.793771 -9.170251 1.811762 -1.241744 -4.564169 1.110244 -42.834070 11.187226 -60.926148 -37.235114 -77.142192 -31.416128 0.000000 0.000000 0.000000 10.618181 -1.087587 1.773651 1.432713 9.088595 -9.555428 12.607286 5.375292 3.493348 -32.383382 -1.105105 57.054377 -76.839772 76.699104 76.009828 0.000000 0.000000 0.000000 
